<svg xmlns="http://www.w3.org/2000/svg" viewBox="0 0 176.91 63.12"><defs><style>.cls-1{fill:none;}.cls-1,.cls-3{stroke:#68cef6;}.cls-1,.cls-3,.cls-4,.cls-5,.cls-6{stroke-miterlimit:10;}.cls-2{fill:#68cef6;}.cls-3,.cls-4{fill:#8dd6ef;}.cls-4{stroke:#8dd6ef;}.cls-5{fill:#b5cda4;stroke:#b5cda4;}.cls-5,.cls-6{stroke-width:0.5px;}.cls-6{fill:#c9b77d;stroke:#c9b77d;}</style></defs><g id="Layer_2" data-name="Layer 2"><g id="Layer_1-2" data-name="Layer 1"><path class="cls-1" d="M1.07,22.75s0-.07,0-.16c0-.26,0-.52,0-.78A9.48,9.48,0,0,1,2.3,17.63a7.41,7.41,0,0,1,2.33-2.46A9.47,9.47,0,0,1,8.8,13.78a14.3,14.3,0,0,1,1.6-.09c10,0,9.49,9.5,9.49,9.5v17.5c0,6.93-8.21,8.21-8.21,8.21S.5,51.13.5,37.72c0-10.53,11.34-9.27,17.55-9.27,0,0,2.79-13.14-7.85-13.32a10.92,10.92,0,0,0-4.56,1.59A7.31,7.31,0,0,0,3.33,19.2a8,8,0,0,0-.94,3.34c0,.05,0,.1,0,.13s-.11,0-.17.06l-.81,0C1.22,22.77,1.12,22.79,1.07,22.75Z"/><path class="cls-1" d="M18.32,29.8V40.36s-.22,6.84-8.12,7.08S2,39.23,2,39.23s-1.19-9,9-9Z"/><path class="cls-2" d="M18.15,28.44a46.25,46.25,0,0,0-10.24.71c-2.67.5-5.11,1.68-6.33,4.25A16.19,16.19,0,0,0,.51,37.76,8.27,8.27,0,0,0,.87,42a9.57,9.57,0,0,0,1.9,3.71,7.86,7.86,0,0,0,1.61,1.26c.44.26,1.6.54,1.8,1l.6-.79-.34-.09L6,48.24c2.31.34,4.68.9,7,.26A9.13,9.13,0,0,0,17.88,45H16.8l.17.37c.21.46.83.34,1.08,0,1.53-2.15,1.65-4.82,1.69-7.37a57.26,57.26,0,0,0-.44-9.62c-.12-.8-1.33-.46-1.2.33a54.16,54.16,0,0,1,.39,8.91c0,2.46,0,5-1.52,7.12h1.08l-.17-.37a.64.64,0,0,0-1.08,0,7.83,7.83,0,0,1-4.47,3c-2,.47-4.06,0-6-.34-.66-.09-1.14.76-.48,1.15a1.75,1.75,0,0,0,1,.26.63.63,0,0,0,.6-.79C7,46.6,5.91,46.4,5,45.86a6.06,6.06,0,0,1-2.62-3.3,8.47,8.47,0,0,1-.74-4.05,17.66,17.66,0,0,1,.92-4.28c1.12-2.7,3.71-3.56,6.37-4a45.78,45.78,0,0,1,9.21-.54c.8,0,.8-1.21,0-1.25Z"/><path class="cls-2" d="M19.8,28.86c0-3.82.67-8.1-1.7-11.39-.81-1.13-2.14-2.81-3.54-3.14a19,19,0,0,0-6.1-.69.64.64,0,0,0-.6.79l0,.16.43-.77a9,9,0,0,0-7.32,8c-.08.8,1.17.8,1.25,0A7.73,7.73,0,0,1,8.66,15a.64.64,0,0,0,.43-.77l0-.16-.61.79a15.24,15.24,0,0,1,5.5.58c1.34.38,2.54,1.82,3.3,3A8.4,8.4,0,0,1,18.57,23c0,1.94,0,3.88,0,5.82a.63.63,0,0,0,1.25,0Z"/><path class="cls-3" d="M52.4,13.7c-4.41-.15-7.73,2.62-9.27,6.59a8.73,8.73,0,0,0-.34,3.3V38.71a9.64,9.64,0,0,0,9.64,9.64A10,10,0,0,0,60.64,44v9c0,2.29-.32,8.19-8.19,8.19a8.24,8.24,0,0,1-4.54-1.24,7.72,7.72,0,0,1-2.47-2.76,10.38,10.38,0,0,1-.85-2.1,9.92,9.92,0,0,1-.34-1.87.32.32,0,0,0-.08-.25c-.13-.11-.39,0-.54,0L43,53a.18.18,0,0,0-.15.05.28.28,0,0,0,0,.22c.07.42.17.83.25,1.26a15.48,15.48,0,0,0,.73,2.77,8,8,0,0,0,1.86,3,7.78,7.78,0,0,0,3.28,1.8,16.7,16.7,0,0,0,4.62.55,8.88,8.88,0,0,0,8.18-6,17.65,17.65,0,0,0,.83-5.91c0-2.21-.06-4.44-.06-6.65V23.78A9.94,9.94,0,0,0,52.4,13.7Zm8.17,25.1c0,2.14-.52,7.93-7.93,7.93s-8.52-7-8.52-7V23.06s1.08-7.86,8.59-7.86,7.86,7.86,7.86,7.86Z"/><path class="cls-4" d="M84.67,48.19V22.51a8.2,8.2,0,0,1,1.67-4.42c2.52-3.52,7-4.25,11-4.34a.3.3,0,0,1,.13,0,.23.23,0,0,1,.06.15,3.35,3.35,0,0,1,0,.71.59.59,0,0,1-.06.32c-.2.35-1.07.15-1.39.16-.61,0-1.23,0-1.84.09a9,9,0,0,0-3.69,1.18c-3.52,2.11-4.43,6.46-4.43,10.27,0,13.89,0,21.54,0,21.54Z"/><path class="cls-5" d="M125.65,13.75a10.9,10.9,0,0,0-4.41,1A9.49,9.49,0,0,0,117.12,18a9.93,9.93,0,0,0-1.59,5.66V39.33a11,11,0,0,0,.36,2.91A12.26,12.26,0,0,0,117,45a9,9,0,0,0,2.26,2.74,8.25,8.25,0,0,0,3.85,1.65,10.6,10.6,0,0,0,1.69.13h1.57a9.14,9.14,0,0,0,4.52-1.1,8.18,8.18,0,0,0,2.74-2.56A11.19,11.19,0,0,0,135,43a11.63,11.63,0,0,0,.55-2.54,26.62,26.62,0,0,0,0-2.68V23.69a9.73,9.73,0,0,0-2.06-6.28,10,10,0,0,0-4.19-2.86A10.9,10.9,0,0,0,125.65,13.75ZM134,40.47S132.44,48,126.43,48h-1.74c-6,0-7.54-7.54-7.54-7.54V23.87c0-8.14,8.32-8.32,8.32-8.32h.18s8.32.18,8.32,8.32Z"/><path class="cls-6" d="M156.69,38.09c.55.59.43,1.56.49,2.29a6,6,0,0,0,.66,2.29,9.29,9.29,0,0,0,3.52,3.93,9.5,9.5,0,0,0,5.32,1.27,8.64,8.64,0,0,0,4.76-1.69,9.07,9.07,0,0,0,3.26-6.27A14,14,0,0,0,169.78,28c-3.61-3.14-8.09-5.27-11-9.15-2.27-3-3.59-6.89-2.8-10.56A10.45,10.45,0,0,1,162.12,1a10.65,10.65,0,0,1,9.54.83,10.89,10.89,0,0,1,5,8.19c.07.75-.19,1.78-1,1.76s-1-1-1.07-1.68a9.49,9.49,0,0,0-6.5-7.65,8.57,8.57,0,0,0-9.33,3.31c-2.1,3.18-1.61,7.56.36,10.81,2.33,3.82,6.1,5.62,9.52,8.21,5.12,3.89,9,10.45,7.41,17-1.44,5.83-8.4,9.13-13.93,7.12a10.33,10.33,0,0,1-5.27-4.37,10.07,10.07,0,0,1-1.28-3.74,12.62,12.62,0,0,1-.1-2c0-.45.46-1,1-.85A.49.49,0,0,1,156.69,38.09Z"/><path class="cls-2" d="M61.78,43.34c0-.13,0-.26,0-.4s0-.11,0-.17,0-.2,0-.06c0-.25.09-.5.15-.74a6.59,6.59,0,0,1,.24-.71c0-.12,0,.07,0-.06a.77.77,0,0,0,.07-.16,3.9,3.9,0,0,1,.19-.35l-1.14-.15c0,.07,0,.08,0,0a.49.49,0,0,1,0,.12c0,.06,0,.12,0,.18s0,.3,0,.45,0,.14,0,.21,0,.08,0,0a.28.28,0,0,1,0,.09c0,.15-.06.29-.1.44l1.22.17a6.16,6.16,0,0,0-.21-1.6.63.63,0,0,0-.69-.45.62.62,0,0,0-.54.61l0,2.83a.63.63,0,1,0,1.25,0l0-2.83L61,41l.09.35a.77.77,0,0,1,0,.15.59.59,0,0,1,0,.13c0-.08,0,.08,0,.09s0,.12,0,.18,0,.24,0,.37a.63.63,0,0,0,.55.61.62.62,0,0,0,.68-.45,4.86,4.86,0,0,0,.11-2.18.63.63,0,0,0-.52-.44.61.61,0,0,0-.62.3,6.84,6.84,0,0,0-.87,3.28.63.63,0,0,0,.62.63.65.65,0,0,0,.63-.63Z"/><path class="cls-2" d="M61.67,41.08A6.25,6.25,0,0,0,62,37.71,16,16,0,0,1,62,34a.63.63,0,1,0-1.25,0,15.09,15.09,0,0,0,0,3.49,5.71,5.71,0,0,1-.15,3,.65.65,0,0,0,.23.86.63.63,0,0,0,.85-.22Z"/><path class="cls-2" d="M61.93,44.16A7.67,7.67,0,0,1,61.24,43c-.17-.43.08-.87.2-1.28.24-.81.34-1.65.55-2.47a20.7,20.7,0,0,0,.76-2.39,24.34,24.34,0,0,0,.06-2.7.63.63,0,0,0-1.25,0,12,12,0,0,1-.11,2.87c-.11.41-.32.79-.46,1.2a9.46,9.46,0,0,0-.36,1.39c-.1.47-.18,1-.3,1.42s-.27.79-.35,1.19a3.38,3.38,0,0,0,.87,2.53c.42.68,1.51.05,1.08-.64Z"/><path class="cls-2" d="M62,34.25q.13-3,.17-5.91c0-1,0-1.94,0-2.92s-.31-1.88-.25-2.82H60.63a2.82,2.82,0,0,0,.73,1.66c.55.59,1.43-.3.88-.89a1.32,1.32,0,0,1-.36-.77.63.63,0,0,0-1.25,0c-.06.94.22,1.88.25,2.82s0,1.95,0,2.92q0,3-.17,5.91c0,.81,1.22.81,1.25,0Z"/><path class="cls-2" d="M62.09,22.69A2.56,2.56,0,0,0,61.74,21a4.66,4.66,0,0,1-.28-.6c-.09-.3,0-.61-.1-.91a5.23,5.23,0,0,0-.83-1.65,9.54,9.54,0,0,0-1.21-1.48c-.57-.57-1.45.32-.88.89a8,8,0,0,1,1,1.18,4,4,0,0,1,.72,1.39c0,.26,0,.53.08.79a3.38,3.38,0,0,0,.26.69c.15.3.45.74.4,1a.64.64,0,0,0,.44.77.62.62,0,0,0,.76-.43Z"/><path class="cls-2" d="M59,16.17A6.79,6.79,0,0,0,57.18,15c-.38-.16-.77-.28-1.14-.46a4,4,0,0,0-1-.41A13.1,13.1,0,0,0,52.62,14L50,14a.63.63,0,0,0,0,1.25l2.35,0a20.14,20.14,0,0,1,2.2.06,2.55,2.55,0,0,1,.85.31c.33.16.66.28,1,.41a5.54,5.54,0,0,1,1.68,1c.6.53,1.49-.35.88-.88Z"/><path class="cls-2" d="M49.66,14.24a2.51,2.51,0,0,0-1.53.53c-.52.32-1,.64-1.53,1a8.91,8.91,0,0,0-2.23,2.47A10.09,10.09,0,0,0,43,24.38c.08.79,1.33.8,1.25,0a9,9,0,0,1,1.07-5.24A7.94,7.94,0,0,1,47,17a10.66,10.66,0,0,1,1.25-.86c.4-.25.88-.7,1.38-.66.8.07.79-1.18,0-1.25Z"/><path class="cls-2" d="M42.63,24.23a28.43,28.43,0,0,1-.06,4.13,8.78,8.78,0,0,0-.06,2.05,8,8,0,0,1,.1,2,.63.63,0,0,0,.43.77.62.62,0,0,0,.77-.44,8.45,8.45,0,0,0,0-2.19,7.66,7.66,0,0,1,0-2,29.51,29.51,0,0,0,.08-4.31.63.63,0,0,0-1.25,0Z"/><path class="cls-2" d="M42.78,32.4A29.12,29.12,0,0,0,43,39.19c.16.79,1.36.45,1.2-.33A27.92,27.92,0,0,1,44,32.4a.63.63,0,0,0-1.25,0Z"/><path class="cls-2" d="M42.75,39.65a8.43,8.43,0,0,0,.79,2.81A7.62,7.62,0,0,0,45.07,45a7.1,7.1,0,0,0,1.24.76,11.92,11.92,0,0,1,1.2.92,6.73,6.73,0,0,0,2.55,1,10.82,10.82,0,0,0,6.1-.08,11.35,11.35,0,0,0,4.67-3.71c.51-.61-.37-1.5-.89-.88A10.59,10.59,0,0,1,56,46.31a9.09,9.09,0,0,1-5.34.23,6.22,6.22,0,0,1-2.34-.85,18.54,18.54,0,0,0-1.78-1.27,4.09,4.09,0,0,1-1.68-2.07,7.16,7.16,0,0,1-.88-2.7c-.07-.79-1.32-.8-1.25,0Z"/><path class="cls-2" d="M60.93,44.48a8.2,8.2,0,0,0,.17,1.21,6.77,6.77,0,0,1,0,1c0,.79,0,1.58,0,2.37a37.26,37.26,0,0,1-.29,4.72.63.63,0,0,0,1.25,0,37.26,37.26,0,0,0,.29-4.72c0-.79,0-1.58,0-2.37a8.54,8.54,0,0,0,0-1c0-.41-.17-.8-.17-1.21a.63.63,0,0,0-1.25,0Z"/><path class="cls-2" d="M60.85,53.6a3.57,3.57,0,0,1-.17,2.28,17.27,17.27,0,0,1-1.2,2.19.63.63,0,0,0,1.08.63,16.66,16.66,0,0,0,1.34-2.54,4.69,4.69,0,0,0,.16-2.89.63.63,0,0,0-1.21.33Z"/><path class="cls-2" d="M59,58.42c-.11.34-.06.63-.34.87a6.37,6.37,0,0,1-1.12.61,10.56,10.56,0,0,1-2.51,1A8.58,8.58,0,0,1,46,58.11a11.84,11.84,0,0,1-1.9-4.76c-.19-.78-1.39-.45-1.21.33a12.66,12.66,0,0,0,2.33,5.44,10.39,10.39,0,0,0,4.86,3.11,6.79,6.79,0,0,0,2.8.27,13.49,13.49,0,0,0,3.39-.61A20.53,20.53,0,0,0,59,60.57a2.63,2.63,0,0,0,1-.7c.24-.34.16-.75.29-1.12.25-.76-1-1.09-1.21-.33Z"/><path class="cls-2" d="M5.93,47h0l.16,0H6l.16,0-.07,0,.15.06a2.27,2.27,0,0,1-.34-.19l-.35-.2a.68.68,0,0,0-.48-.07.48.48,0,0,0-.22.12.52.52,0,0,0-.16.17.67.67,0,0,0-.06.48.65.65,0,0,0,.29.38l.45.26.21.12a1.09,1.09,0,0,0,.25.1.85.85,0,0,0,.42,0,.63.63,0,0,0,.37-.29.45.45,0,0,0,.08-.23.54.54,0,0,0,0-.25A.61.61,0,0,0,6.41,47,.62.62,0,0,0,5.93,47Z"/><path class="cls-2" d="M11.45,49a7,7,0,0,0,1.27-.21.65.65,0,0,0,.37-.28.62.62,0,0,0,.06-.48.6.6,0,0,0-.28-.38.67.67,0,0,0-.48-.06,6.58,6.58,0,0,1-.75.14l.16,0-.35,0A.69.69,0,0,0,11,48,.63.63,0,0,0,11.45,49Z"/></g></g></svg>